<svg width="24" height="24" viewBox="0 0 24 24" fill="none" xmlns="http://www.w3.org/2000/svg">
<path d="M15.5 11C15.5 11.4596 15.4095 11.9148 15.2336 12.3394C15.0577 12.764 14.7999 13.1499 14.4749 13.4749C14.1499 13.7999 13.764 14.0577 13.3394 14.2336C12.9148 14.4095 12.4596 14.5 12 14.5C11.5404 14.5 11.0852 14.4095 10.6606 14.2336C10.236 14.0577 9.85013 13.7999 9.52513 13.4749C9.20012 13.1499 8.94231 12.764 8.76642 12.3394C8.59053 11.9148 8.5 11.4596 8.5 11C8.5 10.0717 8.86875 9.1815 9.52513 8.52513C10.1815 7.86875 11.0717 7.5 12 7.5C12.9283 7.5 13.8185 7.86875 14.4749 8.52513C15.1313 9.1815 15.5 10.0717 15.5 11Z" stroke="black" stroke-width="1.5" stroke-linecap="round" stroke-linejoin="round"/>
<path d="M12 2C16.87 2 21 6.033 21 10.926C21 15.896 16.803 19.385 12.927 21.756C12.644 21.9153 12.3247 21.999 12 21.999C11.6753 21.999 11.356 21.9153 11.073 21.756C7.203 19.363 3 15.915 3 10.927C3 6.033 7.13 2 12 2Z" stroke="black" stroke-width="1.5" stroke-linecap="round" stroke-linejoin="round"/>
</svg>
