<svg width="24" height="24" viewBox="0 0 24 24" fill="none" xmlns="http://www.w3.org/2000/svg">
<path fill-rule="evenodd" clip-rule="evenodd" d="M3.03998 2.292C2.85221 2.22609 2.64595 2.23748 2.46657 2.32365C2.28719 2.40982 2.14939 2.56373 2.08348 2.7515C2.01758 2.93927 2.02896 3.14554 2.11513 3.32491C2.20131 3.50429 2.35521 3.64209 2.54298 3.708L2.80398 3.799C3.47198 4.034 3.91098 4.189 4.23398 4.348C4.53698 4.497 4.66998 4.618 4.75798 4.746C4.84798 4.878 4.91798 5.06 4.95798 5.423C4.99798 5.803 4.99998 6.298 4.99998 7.038V9.64C4.99998 12.582 5.06298 13.552 5.92998 14.466C6.79598 15.38 8.18998 15.38 10.98 15.38H16.282C17.843 15.38 18.624 15.38 19.175 14.93C19.727 14.48 19.885 13.716 20.2 12.188L20.7 9.763C21.047 8.023 21.22 7.154 20.776 6.577C20.332 6 18.816 6 17.131 6H6.49198C6.48776 5.75351 6.47342 5.50731 6.44898 5.262C6.39498 4.765 6.27898 4.312 5.99698 3.9C5.71298 3.484 5.33498 3.218 4.89398 3.001C4.48198 2.799 3.95798 2.615 3.34198 2.398L3.03998 2.292ZM15.517 8.457C15.817 8.743 15.829 9.217 15.543 9.517L12.686 12.517C12.6159 12.5905 12.5317 12.649 12.4384 12.689C12.345 12.729 12.2445 12.7496 12.143 12.7496C12.0414 12.7496 11.9409 12.729 11.8476 12.689C11.7543 12.649 11.67 12.5905 11.6 12.517L10.457 11.317C10.3861 11.2463 10.3302 11.1621 10.2924 11.0694C10.2546 10.9767 10.2357 10.8774 10.2369 10.7773C10.2381 10.6773 10.2593 10.5784 10.2993 10.4867C10.3393 10.3949 10.3972 10.3121 10.4697 10.243C10.5422 10.174 10.6278 10.1202 10.7214 10.0848C10.815 10.0494 10.9147 10.033 11.0148 10.0367C11.1148 10.0405 11.2131 10.0642 11.3038 10.1065C11.3945 10.1488 11.4758 10.2088 11.543 10.283L12.143 10.913L14.457 8.483C14.5941 8.33904 14.7828 8.25544 14.9816 8.25057C15.1804 8.24569 15.3729 8.31994 15.517 8.457Z" fill="black"/>
<path d="M7.5 18C7.89782 18 8.27936 18.158 8.56066 18.4393C8.84196 18.7206 9 19.1022 9 19.5C9 19.8978 8.84196 20.2794 8.56066 20.5607C8.27936 20.842 7.89782 21 7.5 21C7.10218 21 6.72064 20.842 6.43934 20.5607C6.15804 20.2794 6 19.8978 6 19.5C6 19.1022 6.15804 18.7206 6.43934 18.4393C6.72064 18.158 7.10218 18 7.5 18ZM16.5 18C16.8978 18 17.2794 18.158 17.5607 18.4393C17.842 18.7206 18 19.1022 18 19.5C18 19.8978 17.842 20.2794 17.5607 20.5607C17.2794 20.842 16.8978 21 16.5 21C16.1022 21 15.7206 20.842 15.4393 20.5607C15.158 20.2794 15 19.8978 15 19.5C15 19.1022 15.158 18.7206 15.4393 18.4393C15.7206 18.158 16.1022 18 16.5 18Z" fill="black"/>
<path d="M15.0742 8.8568C14.9303 8.87118 14.8255 9.10815 14.7562 9.22021C14.6354 9.41529 14.5162 9.57762 14.3665 9.75099C14.0074 10.1667 13.4839 10.4894 13.0467 10.8173C12.7359 11.0504 12.3724 11.3453 12.0162 11.5011C11.6944 11.6419 11.3865 11.1364 11.244 10.9225" stroke="black" stroke-width="3" stroke-linecap="round"/>
</svg>
