<svg width="24" height="24" viewBox="0 0 24 24" fill="none" xmlns="http://www.w3.org/2000/svg">
<path d="M9.144 2.5C6.487 2.56 4.935 2.815 3.874 3.875C2.813 4.935 2.562 6.487 2.5 9.145M14.856 2.5C17.513 2.56 19.065 2.815 20.126 3.875C21.187 4.935 21.439 6.487 21.5 9.145M14.856 21.5C17.513 21.44 19.065 21.185 20.126 20.125C21.187 19.065 21.439 17.513 21.5 14.855M9.144 21.5C6.487 21.44 4.935 21.185 3.874 20.125C2.813 19.065 2.561 17.513 2.5 14.855M8 8H8.009M16 16H16.009M8 16L16 8" stroke="#3f3f46" stroke-width="1.5" stroke-linecap="round" stroke-linejoin="round"/>
</svg>
