<svg width="20" height="20" viewBox="0 0 20 20" fill="none" xmlns="http://www.w3.org/2000/svg">
<path d="M10 2C7.87827 2 5.84344 2.84285 4.34315 4.34315C2.84285 5.84344 2 7.87827 2 10C2 12.1217 2.84285 14.1566 4.34315 15.6569C5.84344 17.1571 7.87827 18 10 18C12.1217 18 14.1566 17.1571 15.6569 15.6569C17.1571 14.1566 18 12.1217 18 10C18 7.87827 17.1571 5.84344 15.6569 4.34315C14.1566 2.84285 12.1217 2 10 2ZM8.336 3.199C9.42984 2.93113 10.5722 2.93113 11.666 3.199L10 4.17L8.336 3.199ZM7.092 3.631L9.502 5.036V6.736L6.733 8.688L5.173 8.121L4.547 5.609C5.2298 4.76031 6.10125 4.08367 7.092 3.631ZM3.801 6.746L4.194 8.326L3.03 9.36C3.115 8.423 3.383 7.54 3.801 6.746ZM3.035 10.692L4.862 9.072L6.408 9.633L7.453 12.923L6.736 13.996H4.252C3.5695 13.0173 3.15008 11.8795 3.034 10.692M5.097 14.996H6.651L7.161 16.4C6.39444 16.0594 5.69532 15.5839 5.097 14.996ZM8.373 16.81L7.558 14.564L8.268 13.501H11.735L12.446 14.564L11.631 16.809C10.5601 17.0652 9.44388 17.0662 8.373 16.81ZM12.844 16.397L13.354 14.995H14.903C14.306 15.5817 13.6086 16.0565 12.844 16.397ZM15.748 13.995H13.27L12.55 12.92L13.575 9.633L15.142 9.069L16.966 10.691C16.8499 11.8785 16.4305 13.0163 15.748 13.995ZM16.971 9.357L15.811 8.326L16.204 6.754C16.618 7.544 16.886 8.424 16.971 9.357ZM15.457 5.615L14.832 8.118L13.248 8.688L10.501 6.736V5.036L12.91 3.63C13.9025 4.08399 14.775 4.76375 15.458 5.615M7.398 9.445L10 7.607L12.586 9.444L11.634 12.5H8.367L7.398 9.445Z" fill="black"/>
</svg>
