<svg width="24" height="24" viewBox="0 0 24 24" fill="none" xmlns="http://www.w3.org/2000/svg">
<path d="M13 11L18 6M19 7L17 5L19.5 3.5L20.5 4.5L19 7ZM4.025 8.975C3.5449 8.49532 3.2146 7.8864 3.07434 7.22237C2.93408 6.55835 2.9899 5.86787 3.235 5.235L4.657 6.657H6.657V4.657L5.235 3.235C5.86792 2.98934 6.55862 2.93306 7.22295 3.07302C7.88729 3.21297 8.49658 3.54312 8.97659 4.02324C9.4566 4.50336 9.78662 5.11272 9.92643 5.77709C10.0662 6.44145 10.0098 7.13214 9.764 7.765L16.234 14.236C16.8669 13.9902 17.5575 13.9338 18.2219 14.0736C18.8863 14.2134 19.4956 14.5434 19.9758 15.0234C20.4559 15.5034 20.786 16.1127 20.926 16.7771C21.0659 17.4414 21.0097 18.1321 20.764 18.765L19.343 17.343H17.343V19.343L18.765 20.765C18.1322 21.0107 17.4417 21.067 16.7775 20.9272C16.1133 20.7874 15.504 20.4575 15.024 19.9777C14.5439 19.4978 14.2137 18.8887 14.0736 18.2246C13.9336 17.5604 13.9896 16.8699 14.235 16.237L7.763 9.765C7.1304 10.0097 6.44032 10.0653 5.7767 9.92503C5.11308 9.78477 4.50452 9.45472 4.025 8.975Z" stroke="black" stroke-width="1.5" stroke-linecap="round" stroke-linejoin="round"/>
<path d="M12.203 14.5L6.59901 20.104C6.47361 20.2296 6.32468 20.3293 6.16072 20.3973C5.99677 20.4653 5.82101 20.5003 5.64351 20.5003C5.46601 20.5003 5.29025 20.4653 5.12629 20.3973C4.96234 20.3293 4.8134 20.2296 4.68801 20.104L3.89601 19.312C3.77038 19.1866 3.67071 19.0377 3.6027 18.8737C3.5347 18.7098 3.49969 18.534 3.49969 18.3565C3.49969 18.179 3.5347 18.0032 3.6027 17.8393C3.67071 17.6753 3.77038 17.5264 3.89601 17.401L9.50001 11.797" stroke="black" stroke-width="1.5" stroke-linecap="round" stroke-linejoin="round"/>
</svg>
