<svg width="24" height="24" viewBox="0 0 24 24" fill="none" xmlns="http://www.w3.org/2000/svg">
<g clip-path="url(#clip0_2028_6)">
<path d="M12.707 3.63599C12.5194 3.44852 12.2651 3.3432 12 3.3432C11.7348 3.3432 11.4805 3.44852 11.293 3.63599L5.63598 9.29299C5.54047 9.38523 5.46428 9.49558 5.41188 9.61758C5.35947 9.73959 5.33188 9.87081 5.33073 10.0036C5.32957 10.1364 5.35487 10.268 5.40516 10.3909C5.45544 10.5138 5.52969 10.6255 5.62358 10.7194C5.71747 10.8133 5.82913 10.8875 5.95202 10.9378C6.07492 10.9881 6.2066 11.0134 6.33938 11.0122C6.47216 11.0111 6.60338 10.9835 6.72538 10.9311C6.84739 10.8787 6.95773 10.8025 7.04998 10.707L11 6.75699V20C11 20.2652 11.1053 20.5196 11.2929 20.7071C11.4804 20.8946 11.7348 21 12 21C12.2652 21 12.5195 20.8946 12.7071 20.7071C12.8946 20.5196 13 20.2652 13 20V6.75699L16.95 10.707C17.1386 10.8891 17.3912 10.9899 17.6534 10.9877C17.9156 10.9854 18.1664 10.8802 18.3518 10.6948C18.5372 10.5094 18.6424 10.2586 18.6447 9.99639C18.6469 9.73419 18.5461 9.48159 18.364 9.29299L12.707 3.63599Z" fill="black"/>
</g>
<defs>
<clipPath id="clip0_2028_6">
<rect width="24" height="24" fill="white"/>
</clipPath>
</defs>
</svg>
