<svg width="14" height="14" viewBox="0 0 14 14" fill="none" xmlns="http://www.w3.org/2000/svg">
<g clip-path="url(#clip0_2011_7)">
<path d="M1.29 9.71C1.10375 9.89736 0.999207 10.1508 0.999207 10.415C0.999207 10.6792 1.10375 10.9326 1.29 11.12L3.38 13.21C3.56736 13.3963 3.82081 13.5008 4.085 13.5008C4.34919 13.5008 4.60264 13.3963 4.79 13.21L8.5 9.5L5 6L1.29 9.71Z" stroke="black" stroke-linecap="round" stroke-linejoin="round"/>
<path d="M5.54001 6.54L11.29 0.789998C11.4306 0.651241 11.6092 0.557244 11.8032 0.51987C11.9972 0.482496 12.1979 0.503419 12.38 0.579998C12.5626 0.655018 12.719 0.782416 12.8293 0.946136C12.9396 1.10986 12.999 1.30257 13 1.5V3.67C13.0008 3.80161 12.9755 3.93207 12.9258 4.0539C12.876 4.17574 12.8027 4.28656 12.71 4.38L8.00001 9M8.04001 4.04L10.54 6.54" stroke="black" stroke-linecap="round" stroke-linejoin="round"/>
</g>
<defs>
<clipPath id="clip0_2011_7">
<rect width="14" height="14" fill="white"/>
</clipPath>
</defs>
</svg>
