<svg width="22" height="21" viewBox="0 0 22 21" fill="none" xmlns="http://www.w3.org/2000/svg">
<path d="M19.66 19L12.87 2.81C12.5 1.97 11.93 1.29 11.16 0.77C10.4 0.26 9.55 0 8.61 0C7.77 0 7 0.21 6.3 0.63C5.25 1.26 5.04 1.62 4.63 2.32C4.22 3.02 4 3.8 4 4.64L4.03 8H1.03V13.45C1.65 13.17 2.31 13.03 3 13.03V10.03H8C8.57 10.03 9.04 10.23 9.43 10.62C9.82 11 10 11.47 10 12V19.03H7.91C7.75561 19.7513 7.43359 20.4262 6.97 21H12V12C12 11.28 11.8 10.62 11.45 10C11.1 9.38 10.61 8.91 10 8.56C9.42 8.2 8.75 8 8 8H6V4.64C6 3.92 6.25 3.31 6.76 2.79C7.27 2.27 7.89 2 8.61 2C9.14 2 9.63 2.16 10.06 2.46C10.49 2.76 10.81 3.14 11 3.61L17.46 19L15 19.03V21H22V19.03L19.66 19ZM3 17C3.55 17 4 17.45 4 18C4 18.55 3.55 19 3 19C2.45 19 2 18.55 2 18C2 17.45 2.45 17 3 17ZM3 15C1.34 15 0 16.34 0 18C0 19.66 1.34 21 3 21C4.66 21 6 19.66 6 18C6 16.34 4.66 15 3 15Z" fill="black"/>
</svg>
