<svg width="48" height="49" viewBox="0 0 48 49" fill="none" xmlns="http://www.w3.org/2000/svg">
<path d="M44.279 18.75C44.465 18.436 44.596 18.078 44.659 17.678C44.846 16.49 45 14.752 45 12.252C45 9.752 44.846 8.014 44.66 6.826C44.413 5.263 43.124 4.329 41.547 4.209C38.852 4.006 33.575 3.752 24 3.752C14.425 3.752 9.148 4.006 6.453 4.209C4.876 4.329 3.587 5.263 3.341 6.826C3.154 8.014 3 9.752 3 12.252C3 14.752 3.154 16.49 3.34 17.678C3.404 18.078 3.535 18.436 3.721 18.75" stroke="black" stroke-width="3" stroke-linecap="round" stroke-linejoin="round"/>
<path d="M36.316 10.713C37.819 10.838 38.961 12.093 38.976 13.602C39.037 19.418 38.999 27.71 38.636 38.214C38.542 40.898 36.646 43.118 33.971 43.359C31.647 43.568 28.355 43.75 23.943 43.75C19.555 43.75 16.295 43.57 13.998 43.362C11.338 43.122 9.45799 40.913 9.36599 38.244C8.99999 27.725 8.96299 19.423 9.02299 13.602C9.03899 12.094 10.181 10.838 11.684 10.712C14.77 10.456 18.842 10.252 24 10.252C29.158 10.252 33.23 10.456 36.316 10.712V10.713Z" stroke="black" stroke-width="3" stroke-linecap="round" stroke-linejoin="round"/>
<path d="M25 43.746V10.254" stroke="black" stroke-width="3" stroke-linecap="round" stroke-linejoin="round"/>
<path d="M32 43.51V10.432" stroke="black" stroke-width="3" stroke-linecap="round" stroke-linejoin="round"/>
<path d="M17.221 37.75C16.078 37.75 15.123 36.963 15.056 35.822C15.017 35.132 14.9984 34.4411 15 33.75C15 32.915 15.023 32.23 15.056 31.678C15.123 30.537 16.078 29.75 17.22 29.75H17.778C18.921 29.75 19.876 30.537 19.944 31.678C19.976 32.23 19.999 32.915 19.999 33.75C19.999 34.585 19.976 35.27 19.944 35.822C19.877 36.963 18.922 37.75 17.779 37.75H17.221Z" stroke="black" stroke-width="3" stroke-linecap="round" stroke-linejoin="round"/>
</svg>
