<svg width="48" height="49" viewBox="0 0 48 49" fill="none" xmlns="http://www.w3.org/2000/svg">
<path d="M7.44404 8.207C5.21404 8.373 3.53104 9.969 3.32404 12.197C3.16972 13.9221 3.06168 15.6511 3.00004 17.382C2.96504 18.306 3.60004 19.099 4.40004 19.562C5.31149 20.0871 6.06861 20.8429 6.59524 21.7534C7.12187 22.664 7.39944 23.6971 7.40004 24.749C7.39927 25.8007 7.12161 26.8337 6.59499 27.744C6.06837 28.6544 5.31134 29.41 4.40004 29.935C3.60004 30.399 2.96504 31.192 3.00004 32.116C3.08504 34.316 3.20304 36.013 3.32304 37.303C3.53004 39.53 5.21304 41.126 7.44304 41.293C10.417 41.515 15.553 41.75 24 41.75C32.447 41.75 37.583 41.516 40.556 41.293C42.786 41.127 44.469 39.531 44.676 37.303C44.796 36.014 44.913 34.317 44.998 32.118C45.034 31.193 44.398 30.401 43.598 29.937C42.687 29.4116 41.9304 28.6557 41.4041 27.7452C40.8778 26.8347 40.6005 25.8017 40.6 24.75C40.6007 23.6981 40.8783 22.665 41.405 21.7545C41.9316 20.844 42.6887 20.0881 43.6 19.563C44.4 19.1 45.035 18.307 45 17.383C44.9388 15.6514 44.8311 13.9218 44.677 12.196C44.47 9.969 42.787 8.373 40.557 8.206C37.583 7.985 32.446 7.75 24 7.75C15.553 7.75 10.417 7.984 7.44404 8.207Z" stroke="black" stroke-width="3" stroke-linecap="round" stroke-linejoin="round"/>
<path d="M33.022 33.69C33.674 32.983 34 32 34 30.737C34 29.492 33.674 28.517 33.022 27.81C32.37 27.103 31.529 26.75 30.5 26.75C29.456 26.75 28.609 27.103 27.956 27.81C27.319 28.517 27 29.492 27 30.737C27 31.999 27.319 32.983 27.956 33.69C28.609 34.397 29.456 34.75 30.5 34.75C31.529 34.75 32.37 34.397 33.022 33.69Z" stroke="black" stroke-width="3" stroke-linecap="round" stroke-linejoin="round"/>
<path d="M20.022 21.69C20.674 20.983 21 20 21 18.737C21 17.492 20.674 16.517 20.022 15.81C19.37 15.103 18.529 14.75 17.5 14.75C16.456 14.75 15.609 15.103 14.957 15.81C14.319 16.517 14 17.492 14 18.737C14 19.999 14.319 20.983 14.957 21.69C15.609 22.397 16.457 22.75 17.5 22.75C18.529 22.75 19.37 22.397 20.022 21.69Z" stroke="black" stroke-width="3" stroke-linecap="round" stroke-linejoin="round"/>
<path d="M32 16.75L16 32.75" stroke="black" stroke-width="3" stroke-linecap="round" stroke-linejoin="round"/>
</svg>
