<svg width="48" height="49" viewBox="0 0 48 49" fill="none" xmlns="http://www.w3.org/2000/svg">
<path d="M6 21.563V31.75C6 35.788 6.16 38.79 6.343 40.894C6.553 43.316 8.425 45.114 10.848 45.306C13.63 45.526 17.942 45.75 24 45.75C30.058 45.75 34.369 45.527 37.152 45.306C39.575 45.114 41.448 43.316 41.657 40.894C41.84 38.79 42 35.788 42 31.75V21.562" stroke="black" stroke-width="3" stroke-linecap="round" stroke-linejoin="round"/>
<path d="M3.29 20.02C3.582 21.038 4.59 21.524 5.647 21.553C8.28 21.627 14.167 21.75 24 21.75C33.833 21.75 39.72 21.627 42.353 21.553C43.411 21.523 44.418 21.038 44.71 20.02C44.873 19.45 45 18.7 45 17.75C45 16.8 44.873 16.05 44.71 15.48C44.418 14.462 43.41 13.976 42.353 13.947C39.72 13.873 33.833 13.75 24 13.75C14.167 13.75 8.28 13.873 5.647 13.947C4.589 13.977 3.582 14.462 3.29 15.48C3.127 16.05 3 16.8 3 17.75C3 18.7 3.127 19.45 3.29 20.02Z" stroke="black" stroke-width="3" stroke-linecap="round" stroke-linejoin="round"/>
<path d="M24 21.75V45.75" stroke="black" stroke-width="3" stroke-linecap="round" stroke-linejoin="round"/>
<path d="M24 13.75C24 10.75 20.5 3.75 15.25 3.75C12.187 3.75 10 6.436 10 9.75C10 11.287 10.505 12.688 11.337 13.75" stroke="black" stroke-width="3" stroke-linecap="round" stroke-linejoin="round"/>
<path d="M24 13.75C24 10.75 27.5 3.75 32.75 3.75C35.813 3.75 38 6.436 38 9.75C38 11.287 37.495 12.688 36.663 13.75" stroke="black" stroke-width="3" stroke-linecap="round" stroke-linejoin="round"/>
</svg>
