<svg width="48" height="49" viewBox="0 0 48 49" fill="none" xmlns="http://www.w3.org/2000/svg">
<path d="M15 3.75C15 3.75 10.885 3.75 6.734 4.022C5.8344 4.07821 4.98626 4.46087 4.34881 5.09813C3.71137 5.73539 3.32847 6.58342 3.272 7.483C3 11.635 3 15.75 3 15.75" stroke="black" stroke-width="3" stroke-linecap="round" stroke-linejoin="round"/>
<path d="M33 3.75C33 3.75 37.115 3.75 41.266 4.022C42.1656 4.07821 43.0137 4.46087 43.6512 5.09813C44.2886 5.73539 44.6715 6.58342 44.728 7.483C45 11.635 45 15.75 45 15.75" stroke="black" stroke-width="3" stroke-linecap="round" stroke-linejoin="round"/>
<path d="M33 45.75C33 45.75 37.115 45.75 41.266 45.478C42.1656 45.4218 43.0137 45.0391 43.6512 44.4019C44.2886 43.7646 44.6715 42.9166 44.728 42.017C45 37.865 45 33.75 45 33.75" stroke="black" stroke-width="3" stroke-linecap="round" stroke-linejoin="round"/>
<path d="M15 45.75C15 45.75 10.885 45.75 6.734 45.478C5.8344 45.4218 4.98626 45.0391 4.34881 44.4019C3.71137 43.7646 3.32847 42.9166 3.272 42.017C3 37.865 3 33.75 3 33.75" stroke="black" stroke-width="3" stroke-linecap="round" stroke-linejoin="round"/>
<path d="M36 13.75V35.75" stroke="black" stroke-width="3" stroke-linecap="round" stroke-linejoin="round"/>
<path d="M12 13.75V35.75" stroke="black" stroke-width="3" stroke-linecap="round" stroke-linejoin="round"/>
<path d="M30 13.75V29.75" stroke="black" stroke-width="3" stroke-linecap="round" stroke-linejoin="round"/>
<path d="M30 35.75V34.75" stroke="black" stroke-width="3" stroke-linecap="round" stroke-linejoin="round"/>
<path d="M24 13.75V29.75" stroke="black" stroke-width="3" stroke-linecap="round" stroke-linejoin="round"/>
<path d="M24 35.75V34.75" stroke="black" stroke-width="3" stroke-linecap="round" stroke-linejoin="round"/>
<path d="M18 13.75V29.75" stroke="black" stroke-width="3" stroke-linecap="round" stroke-linejoin="round"/>
<path d="M18 35.75V34.75" stroke="black" stroke-width="3" stroke-linecap="round" stroke-linejoin="round"/>
</svg>
