<svg width="48" height="49" viewBox="0 0 48 49" fill="none" xmlns="http://www.w3.org/2000/svg">
<path d="M38.94 39.435C39.365 39.415 39.764 39.395 40.136 39.375C42.413 39.254 44.236 37.539 44.449 35.27C44.694 32.671 44.954 28.86 44.994 24.152C45.001 23.332 44.834 22.518 44.452 21.793C43.462 19.915 41.143 16.1 37.655 13.799C36.917 13.313 36.043 13.1 35.159 13.07C32.623 12.985 29.829 12.922 26.986 12.875" stroke="black" stroke-width="3" stroke-linecap="round" stroke-linejoin="round"/>
<path d="M3.015 25.75C3.005 26.29 3 26.837 3 27.386C3 30.882 3.21 33.641 3.439 35.603C3.685 37.72 5.419 39.242 7.547 39.359C8.007 39.384 8.511 39.41 9.06 39.436" stroke="black" stroke-width="3" stroke-linecap="round" stroke-linejoin="round"/>
<path fill-rule="evenodd" clip-rule="evenodd" d="M34.336 17.929C36.517 19.166 38.107 21.549 39.038 23.277C39.608 24.337 38.96 25.579 37.76 25.682C36.12 25.824 34.617 25.72 33.558 25.589C32.638 25.475 32 24.674 32 23.747V19.37C32.0003 18.9405 32.1711 18.5287 32.4748 18.2251C32.7786 17.9215 33.1905 17.751 33.62 17.751C33.87 17.751 34.118 17.805 34.336 17.929Z" stroke="black" stroke-width="3" stroke-linecap="round" stroke-linejoin="round"/>
<path d="M27 25.75H15H3V14.75C3 11.773 3.094 9.487 3.206 7.82C3.349 5.691 4.991 4.085 7.121 3.957C8.962 3.847 11.558 3.75 15 3.75C18.442 3.75 21.038 3.847 22.878 3.957C25.009 4.085 26.651 5.691 26.794 7.821C26.906 9.487 27 11.773 27 14.75V25.75Z" stroke="black" stroke-width="3" stroke-linecap="round" stroke-linejoin="round"/>
<path d="M19.9771 39.73C22.6596 39.7569 25.3425 39.7569 28.0251 39.73" stroke="black" stroke-width="3" stroke-linecap="round" stroke-linejoin="round"/>
<path d="M28 40.25C28 41.7087 28.5795 43.1076 29.6109 44.1391C30.6424 45.1705 32.0413 45.75 33.5 45.75C34.9587 45.75 36.3576 45.1705 37.3891 44.1391C38.4205 43.1076 39 41.7087 39 40.25C39 38.7913 38.4205 37.3924 37.3891 36.3609C36.3576 35.3295 34.9587 34.75 33.5 34.75C32.0413 34.75 30.6424 35.3295 29.6109 36.3609C28.5795 37.3924 28 38.7913 28 40.25Z" stroke="black" stroke-width="3" stroke-linecap="round" stroke-linejoin="round"/>
<path d="M9 40.25C9 41.7087 9.57946 43.1076 10.6109 44.1391C11.6424 45.1705 13.0413 45.75 14.5 45.75C15.9587 45.75 17.3576 45.1705 18.3891 44.1391C19.4205 43.1076 20 41.7087 20 40.25C20 38.7913 19.4205 37.3924 18.3891 36.3609C17.3576 35.3295 15.9587 34.75 14.5 34.75C13.0413 34.75 11.6424 35.3295 10.6109 36.3609C9.57946 37.3924 9 38.7913 9 40.25Z" stroke="black" stroke-width="3" stroke-linecap="round" stroke-linejoin="round"/>
</svg>
